<svg viewBox="0 0 704 706" xmlns="http://www.w3.org/2000/svg">
<path d="M0.682251 41.7064C0.682252 31.3153 4.64002 20.8826 12.62 12.9215C28.5193 -2.97776 54.2486 -2.97776 70.1479 12.9216L351.995 294.787L633.861 12.9216C649.76 -2.97773 675.512 -2.97773 691.388 12.9216C707.288 28.8209 707.288 54.5729 691.388 70.4684L380.78 381.077C364.88 396.977 339.128 396.977 323.252 381.077L12.6238 70.4684C4.66278 62.5339 0.682251 52.1201 0.682251 41.7064Z"/>
<path d="M703.313 664.296C703.313 674.687 699.355 685.119 691.375 693.08C675.476 708.98 649.747 708.98 633.847 693.08L352 411.215L70.1345 693.08C54.2352 708.98 28.4832 708.98 12.6066 693.08C-3.2927 677.181 -3.2927 651.429 12.6066 635.534L323.216 324.925C339.115 309.025 364.867 309.025 380.743 324.925L691.371 635.534C699.332 643.468 703.313 653.882 703.313 664.296Z" />
</svg>
