<svg viewBox="0 0 512 400" fill="none" xmlns="http://www.w3.org/2000/svg">
<g clip-path="url(#clip0_409_10)">
<path d="M16.9 396.7C10.1 393.2 4.5 387 1.9 380.2C0.8 377.1 0.5 351.2 0.2 229.9L0 83.1998L24.7 82.7998C38.4 82.4998 50 82.6998 50.6 83.1998C51.3 83.6998 108.3 83.8998 179.1 83.7998L306.5 83.4998L310.7 81.2998C316.9 77.8998 320.5 72.8998 327.4 57.9998C332.7 46.2998 333.9 44.4998 336.1 44.1998C338.2 43.8998 339.4 42.3998 343.4 33.7998C348.3 23.2998 351 20.0998 357.2 16.8998C360.7 15.0998 364.1 14.9998 427.5 14.9998C500.2 14.9998 498.1 14.7998 504.3 20.7998C505.9 22.2998 508.2 25.2998 509.3 27.4998L511.5 31.4998V203C511.5 343.2 511.3 375.3 510.2 379.1C508.1 386.3 502.4 393 495.1 396.7L488.8 400H256H23.2L16.9 396.7Z" fill="#FCD462"/>
<path d="M46.3 85.7C44 84.5 44 84.3 44 62.8V41H119.9C186 41 195.9 41.2 197 42.5C198.1 43.8 207.6 44 268.1 44.2L337.9 44.5L331 59.5C323.5 75.9 320.1 80.9 313.7 84.3L309.5 86.5L179 86.6C83.9 86.7 47.9 86.5 46.3 85.7Z" fill="#EBF0F3"/>
<path d="M0.700049 77.8C1.60005 57.2 5.10005 36.3 10.4 18.8C13.2 9.7 16.5001 5.3 23.2001 1.9C26.8001 0.100002 29.8 0 93.5 0C157.1 0 160.2 0.100002 163.8 1.9C168.8 4.5 170.9 6.9 185.3 26.5L197.8 43.5L122.4 43.8L47 44V64.4C47 84.7 47 84.8 44.8 85.4C43.5 85.7 33 86 21.4 86H0.300049L0.700049 77.8Z" fill="#F6C358"/>
</g>
<defs>
<clipPath id="clip0_409_10">
<rect width="512" height="400" fill="white"/>
</clipPath>
</defs>
</svg>
